<svg version="1.1" viewBox="0.0 0.0 960.0 540.0" fill="none" stroke="none" stroke-linecap="square" stroke-miterlimit="10" xmlns:xlink="http://www.w3.org/1999/xlink" xmlns="http://www.w3.org/2000/svg"><clipPath id="g2db6eb5fa19_0_21.0"><path d="m0 0l960.0 0l0 540.0l-960.0 0l0 -540.0z" clip-rule="nonzero"/></clipPath><g clip-path="url(#g2db6eb5fa19_0_21.0)"><path fill="#ffffff" d="m0 0l960.0 0l0 540.0l-960.0 0z" fill-rule="evenodd"/><path fill="#073763" d="m480.0 7.0l280.50378 152.33856l0 223.32288l-280.50378 152.33856l-280.50378 -152.33856l0 -223.32288z" fill-rule="evenodd"/><path stroke="#0000ff" stroke-width="8.0" stroke-linejoin="round" stroke-linecap="butt" d="m480.0 7.0l280.50378 152.33856l0 223.32288l-280.50378 152.33856l-280.50378 -152.33856l0 -223.32288z" fill-rule="evenodd"/><g mask="url(#mask-g2db6eb5fa19_0_21.1)"><use xlink:href="#g2db6eb5fa19_0_21.1" transform="matrix(1.0 0.0 0.0 -1.0 0.0 407.96293430208834)"/></g><defs><mask id="mask-g2db6eb5fa19_0_21.1" maskUnits="userSpaceOnUse" x="159.0596619238459" y="129.05932253162158" width="639.6603210824276" height="201.48934080069674"><linearGradient gradientUnits="userSpaceOnUse" id="gradient-g2db6eb5fa19_0_21.1" x1="229.17304670732275" y1="205.97965114566006" x2="229.17301912684044" y2="213.5985897919934"><stop offset="0%" stop-color="#ffffff" stop-opacity="1.0"/><stop offset="100%" stop-color="#ffffff" stop-opacity="0.0"/></linearGradient><rect fill="url(#gradient-g2db6eb5fa19_0_21.1)" x="159.0596619238459" y="129.05932253162158" width="639.6603210824276" height="201.48934080069674"/></mask></defs><g id="g2db6eb5fa19_0_21.1"><g filter="url(#shadowFilter-g2db6eb5fa19_0_21.2)"><use xlink:href="#g2db6eb5fa19_0_21.2" transform="matrix(1.0 0.0 0.0 1.0 -1.113384776902906 7.922144619422584)"/></g><defs><filter id="shadowFilter-g2db6eb5fa19_0_21.2" filterUnits="userSpaceOnUse"><feGaussianBlur in="SourceAlpha" stdDeviation="23.0" result="blur"/><feComponentTransfer in="blur" color-interpolation-filters="sRGB"><feFuncR type="linear" slope="0" intercept="0.0"/><feFuncG type="linear" slope="0" intercept="0.0"/><feFuncB type="linear" slope="0" intercept="0.0"/><feFuncA type="linear" slope="0.59" intercept="0"/></feComponentTransfer></filter></defs><g id="g2db6eb5fa19_0_21.2"><path fill="#eeeeee" d="m249.44449 166.55983c1.0356445 0 1.9132538 0.36535645 2.6328278 1.0960846c0.6586609 0.66267395 1.3311615 1.6153717 2.0175018 2.8580627l0 0l0 16.452393l0 0c-0.07524109 0.14326477 -0.14923096 0.2829132 -0.22192383 0.4189911c-0.8876953 1.6653595 -1.7148743 2.8506622 -2.4815216 3.555893c-0.7599335 0.7052307 -1.6139984 1.0578461 -2.56221 1.0578461c-0.8675232 0 -1.580368 -0.2336731 -2.1385498 -0.70098877c-0.55818176 -0.46731567 -1.0020294 -1.1980438 -1.331543 -2.192154c-0.3295288 -0.99412537 -0.5581665 -2.2473907 -0.68595886 -3.7598114c-0.12104797 -1.5124207 -0.18156433 -3.3392334 -0.18156433 -5.4804077c0 -2.1921692 0.080703735 -4.120926 0.24209595 -5.7862854c0.16812134 -1.6738586 0.4472046 -3.058838 0.837265 -4.154907c0.3967743 -1.0960846 0.9146118 -1.928772 1.5534668 -2.4980469c0.6388855 -0.57777405 1.4122467 -0.8666687 2.3201141 -0.8666687zm1.9872284 -25.37555l0 6.729431l0.37324524 0.16569519c0.49092102 0.20391846 0.9011383 0.38659668 1.2306671 0.54803467c0.33625793 0.15293884 0.59516907 0.33561707 0.7767334 0.54803467c0.18829346 0.20391846 0.28245544 0.51405334 0.28245544 0.93040466l0 12.657272l0 0c-1.0796814 -1.7323303 -2.3607788 -3.0667725 -3.8433228 -4.0033417c-1.6072845 -1.0196075 -3.466751 -1.529419 -5.5783844 -1.529419c-3.053131 0 -5.706131 0.9813843 -7.959015 2.9441223c-2.2528687 1.9542542 -3.9912872 4.6434784 -5.21521 8.067673c-1.2172241 3.4156952 -1.8258362 7.290207 -1.8258362 11.62355c0 4.2313843 0.55818176 7.9656982 1.6745148 11.202957c1.1163483 3.2372742 2.7370605 5.7693024 4.8621674 7.5961c2.1318207 1.8267975 4.7478485 2.7402039 7.848053 2.7402039c2.2730408 0 4.203125 -0.560791 5.790207 -1.6823578c1.5938263 -1.1300659 2.9690857 -2.761444 4.125778 -4.8941345c0.32234192 -0.5966797 0.6365967 -1.2280121 0.9427185 -1.8939819l0 0l0.6712799 7.6038055l15.554871 0l0 -6.729431l-0.43374634 -0.16567993c-0.7464905 -0.25489807 -1.2844849 -0.50131226 -1.6140137 -0.7392273c-0.3294983 -0.23789978 -0.4942627 -0.6669769 -0.4942627 -1.2872467l0 -50.432465z" fill-rule="evenodd"/><path fill="#eeeeee" d="m283.6565 138.99213c-2.394104 0 -4.2636414 0.6669922 -5.6086426 2.0009918c-1.3450012 1.3254852 -2.0174866 3.2669983 -2.0174866 5.8245087c0 2.5575256 0.67248535 4.5032806 2.0174866 5.837265c1.3450012 1.3339996 3.214569 2.0009918 5.6086426 2.0009918c2.441162 0 4.320801 -0.6669922 5.6388855 -2.0009918c1.3248291 -1.3339844 1.9872437 -3.2797394 1.9872437 -5.837265c0 -2.5575104 -0.66241455 -4.4990234 -1.9872437 -5.8245087c-1.3180847 -1.3339996 -3.1977234 -2.0009918 -5.6388855 -2.0009918zm-9.542755 19.028473l0 6.971573l0.4942932 0.1529541c0.74645996 0.20391846 1.2844849 0.4375763 1.6139832 0.7009735c0.3295288 0.26339722 0.4942932 0.7094879 0.4942932 1.3382416l0 23.565735c0 1.4104614 -0.2185669 2.366333 -0.6557007 2.8676453c-0.4303894 0.4928131 -1.0390015 0.7392273 -1.8258057 0.7392273l-0.12106323 0l0 6.181381l19.65039 0l0 -6.181381l-0.13113403 0c-0.7397461 0 -1.3382874 -0.24641418 -1.7955627 -0.7392273c-0.45056152 -0.50131226 -0.6758728 -1.4571838 -0.6758728 -2.8676453l0 -32.729477z" fill-rule="evenodd"/><path fill="#eeeeee" d="m313.84384 157.00099c-3.221283 0 -6.0726624 0.48431396 -8.554169 1.4529419c-2.4815369 0.9601288 -4.425049 2.4980469 -5.8305664 4.6137238c-1.4055176 2.1156921 -2.1082764 4.923874 -2.1082764 8.42453c0 2.3960876 0.3395996 4.3928223 1.0188293 5.990219c0.6859436 1.5888824 1.6072693 2.8549042 2.763977 3.7980347c1.1566772 0.9346466 2.4277039 1.6908569 3.8130493 2.268631c1.3853455 0.56929016 2.7807922 1.062088 4.18631 1.4784393c0.9885559 0.31437683 1.9266968 0.59051514 2.814392 0.8284302c0.8876953 0.23791504 1.6812439 0.5395508 2.3806458 0.9049072c0.7061157 0.36535645 1.2542114 0.82418823 1.6442566 1.3764801c0.39678955 0.54377747 0.5951538 1.2830048 0.5951538 2.2176514c0 0.9941101 -0.16473389 1.8055573 -0.4942627 2.434311c-0.3295288 0.6202545 -0.8473511 1.062088 -1.5534668 1.3255005c-0.69940186 0.26339722 -1.6274719 0.39509583 -2.7841492 0.39509583c-1.116333 0 -2.1284485 -0.07647705 -3.0363464 -0.2294159c-0.7765503 -0.13809204 -1.4793091 -0.32279968 -2.1082764 -0.5541382l0 0l0 -6.188034l-9.6032715 0l0 10.4127655c0.57836914 0.36535645 1.5265808 0.8369293 2.8446655 1.4147186c1.3248291 0.5692749 2.9892578 1.062088 4.9933167 1.4784241c2.0040283 0.4248352 4.2434387 0.6372528 6.718231 0.6372528c4.09552 0 7.494995 -0.5352936 10.198456 -1.6058807c2.7101746 -1.0705872 4.714203 -2.752945 6.0121155 -5.0470734c1.304657 -2.3026123 1.9569702 -5.3062134 1.9569702 -9.010803c0 -2.2941132 -0.37322998 -4.222885 -1.11969 -5.7862854c-0.7464905 -1.5718994 -1.7384033 -2.8549042 -2.9757996 -3.8490143c-1.2374268 -0.99412537 -2.5891418 -1.7885742 -4.055176 -2.3833466c-1.4660339 -0.6032715 -2.921997 -1.1385651 -4.3678894 -1.6058807c-1.116333 -0.3653717 -2.1419067 -0.67974854 -3.0766602 -0.94314575c-0.92807007 -0.26339722 -1.7451477 -0.54803467 -2.4512634 -0.85391235c-0.69940186 -0.3143921 -1.2340393 -0.71798706 -1.6039124 -1.2108002c-0.36987305 -0.501297 -0.5548096 -1.1682892 -0.5548096 -2.0009766c0 -1.206543 0.35977173 -2.0434723 1.0793762 -2.510788c0.72628784 -0.46733093 1.83255 -0.70098877 3.318756 -0.70098877c0.9482422 0 1.7922058 0.06373596 2.531952 0.19117737c0.62677 0.10700989 1.2084656 0.2529602 1.7451477 0.4378357l0 0l0 4.9278717l9.421692 0l0 -9.393158c-0.3765869 -0.26341248 -1.1432495 -0.64151 -2.2999268 -1.1343231c-1.1567078 -0.50131226 -2.6866455 -0.9601288 -4.589813 -1.3764648c-1.8964539 -0.41635132 -4.18631 -0.6245117 -6.869568 -0.6245117z" fill-rule="evenodd"/><path fill="#eeeeee" d="m353.0159 157.2304c-4.1762085 0 -7.743805 0.8369293 -10.702789 2.510788c-2.9522705 1.6738586 -5.2253113 4.142166 -6.819153 7.4049225c-1.5870667 3.2627563 -2.3806458 7.294464 -2.3806458 12.095123c0 4.9026184 0.8372803 9.002304 2.5118103 12.299042c1.6744995 3.2882385 3.9778137 5.756546 6.909912 7.4049225c2.9320984 1.6398621 6.321472 2.4598083 10.168152 2.4598083c2.6025696 0 4.8722534 -0.48431396 6.8090515 -1.4529419c1.9435425 -0.9686279 3.587799 -2.3408508 4.93277 -4.116684c1.3450012 -1.7758179 2.4310913 -3.8617706 3.2582703 -6.2578583l-4.710846 -3.6068573c-0.5379944 1.2575073 -1.170166 2.4598083 -1.8964539 3.6068573c-0.719574 1.1470642 -1.5568237 2.0732117 -2.5117798 2.7784424c-0.94821167 0.7052307 -2.0208435 1.0578461 -3.2178955 1.0578461c-1.3248291 0 -2.4512634 -0.25915527 -3.379303 -0.77745056c-0.92807007 -0.52679443 -1.6913452 -1.3509827 -2.289856 -2.4725494c-0.59854126 -1.121582 -1.0423889 -2.5830078 -1.3315735 -4.384323c-0.28915405 -1.8013153 -0.43374634 -3.9807281 -0.43374634 -6.538254c0 -3.3392181 0.19500732 -6.066681 0.585083 -8.182373c0.39004517 -2.1156921 1.0188293 -3.6705933 1.8863525 -4.6647186c0.87423706 -0.9941101 2.0107727 -1.4911652 3.409546 -1.4911652c0.9146118 0 1.647644 0.16992188 2.1990967 0.50979614c0.053894043 0.032821655 0.107666016 0.06674194 0.16137695 0.10177612l0 0l0 8.794327l10.470795 0l0 -13.701019c-0.5379944 -0.4248352 -1.4155884 -0.8963928 -2.6328125 -1.4147034c-1.2172241 -0.5182953 -2.7471619 -0.97288513 -4.589813 -1.3637238c-1.835907 -0.39935303 -3.9710999 -0.59902954 -6.405548 -0.59902954z" fill-rule="evenodd"/><path fill="#eeeeee" d="m397.4482 157.39609c-1.9838562 0 -3.594513 0.62875366 -4.8318787 1.8862762c-1.2373962 1.2490234 -2.2932434 3.0503235 -3.1674805 5.4039307c-0.56500244 1.5273132 -1.1556702 3.254654 -1.7720032 5.182022l0 0l-0.8305664 -11.847717l-15.675934 0l0 6.971573l0.4942932 0.1529541c0.49765015 0.15293884 0.90115356 0.31011963 1.2105103 0.47155762c0.30932617 0.1529541 0.53460693 0.3483734 0.6758423 0.58628845c0.14794922 0.23789978 0.22192383 0.56503296 0.22192383 0.981369l0 23.565735c0 1.4104614 -0.2185669 2.366333 -0.65567017 2.8676453c-0.43041992 0.4928131 -1.039032 0.7392273 -1.8258362 0.7392273l-0.12106323 0l0 6.181381l21.072723 0l0 -6.181381l-0.25216675 0c-0.6590576 0 -1.2777405 -0.012756348 -1.8561096 -0.038238525c-0.5783386 -0.033981323 -1.0423584 -0.10195923 -1.3920593 -0.20391846c-0.34970093 -0.10197449 -0.52456665 -0.2336731 -0.52456665 -0.39511108l0 -19.162094l0 0c0.049926758 -0.032913208 0.100372314 -0.06484985 0.15133667 -0.09577942c0.51782227 -0.31437683 1.0860596 -0.560791 1.704773 -0.73921204c0.61868286 -0.18693542 1.2878113 -0.31863403 2.0074158 -0.39511108c0.72628784 -0.07646179 1.462677 -0.11470032 2.209137 -0.11470032c0.69940186 0 1.4324341 0.025482178 2.1990662 0.07647705c0.7666626 0.050979614 1.4794922 0.11470032 2.1385498 0.19117737c0.6590576 0.07646179 1.1533508 0.1444397 1.4828796 0.20391846l0 -15.740234c-0.16140747 -0.110458374 -0.48083496 -0.2294159 -0.958313 -0.3568573c-0.47747803 -0.12745667 -1.0457458 -0.19117737 -1.7048035 -0.19117737z" fill-rule="evenodd"/><path fill="#eeeeee" d="m413.3132 138.99213c-2.3940735 0 -4.2636414 0.6669922 -5.608612 2.0009918c-1.3450012 1.3254852 -2.017517 3.2669983 -2.017517 5.8245087c0 2.5575256 0.67251587 4.5032806 2.017517 5.837265c1.3450012 1.3339996 3.2145386 2.0009918 5.608612 2.0009918c2.4411926 0 4.320801 -0.6669922 5.638916 -2.0009918c1.3248291 -1.3339844 1.9872131 -3.2797394 1.9872131 -5.837265c0 -2.5575104 -0.66238403 -4.4990234 -1.9872131 -5.8245087c-1.3181152 -1.3339996 -3.1977234 -2.0009918 -5.638916 -2.0009918zm-9.542725 19.028473l0 6.971573l0.4942627 0.1529541c0.7464905 0.20391846 1.2844849 0.4375763 1.6140137 0.7009735c0.3295288 0.26339722 0.4942932 0.7094879 0.4942932 1.3382416l0 23.565735c0 1.4104614 -0.2185669 2.366333 -0.6557007 2.8676453c-0.4303894 0.4928131 -1.0390015 0.7392273 -1.8258362 0.7392273l-0.121032715 0l0 6.181381l19.65039 0l0 -6.181381l-0.13113403 0c-0.7397461 0 -1.3382874 -0.24641418 -1.7955933 -0.7392273c-0.45056152 -0.50131226 -0.6758423 -1.4571838 -0.6758423 -2.8676453l0 -32.729477z" fill-rule="evenodd"/><path fill="#eeeeee" d="m454.8994 157.15393c-1.8561096 0 -3.621399 0.50979614 -5.295929 1.529419c-1.67453 1.0196075 -3.1741943 2.4173126 -4.4990234 4.1931458c-0.8718567 1.1746368 -1.636322 2.4626617 -2.293396 3.8640747l0 0l-0.67230225 -8.719971l-15.7465515 0l0 6.971573l0.4942932 0.1529541c0.49765015 0.15293884 0.90115356 0.31011963 1.2104797 0.47155762c0.3093567 0.1529541 0.53463745 0.3483734 0.6758728 0.58628845c0.14794922 0.23789978 0.22192383 0.56503296 0.22192383 0.981369l0 23.565735c0 1.4104614 -0.2185669 2.366333 -0.6557007 2.8676453c-0.4303894 0.4928131 -1.0390015 0.7392273 -1.8258057 0.7392273l-0.12106323 0l0 6.181381l18.90393 0l0 -6.181381l-0.25219727 0c-0.20175171 0 -0.42703247 -0.012756348 -0.6758423 -0.038238525c-0.24884033 -0.033981323 -0.46740723 -0.10195923 -0.6557007 -0.20391846c-0.18157959 -0.10197449 -0.27236938 -0.2336731 -0.27236938 -0.39511108l0 -21.422363l0 0c0.24032593 -0.49246216 0.475708 -0.94351196 0.70614624 -1.3531647c0.7666321 -1.3594818 1.4996643 -2.336609 2.1990662 -2.9313812c0.7061157 -0.6032715 1.3685303 -0.9049072 1.9872131 -0.9049072c0.57836914 0 1.0322876 0.15719604 1.3618164 0.47157288c0.3295288 0.3058777 0.5548096 0.7349701 0.6758728 1.287262c0.1277771 0.5437927 0.19165039 1.2362671 0.19165039 2.0774536l0 22.775528c0 0.16143799 -0.08407593 0.2931366 -0.25219727 0.39511108c-0.16137695 0.10195923 -0.3765869 0.16993713 -0.64559937 0.20391846c-0.26898193 0.025482178 -0.52789307 0.038238525 -0.7767334 0.038238525l-0.18157959 0l0 6.181381l18.217987 0l0 -6.181381l-0.18157959 0c-0.20846558 0 -0.4472046 -0.012756348 -0.71621704 -0.038238525c-0.26898193 -0.033981323 -0.49765015 -0.10195923 -0.6859436 -0.20391846c-0.18157959 -0.10197449 -0.27233887 -0.2336731 -0.27233887 -0.39511108l0 -21.467987l0 0c0.21932983 -0.4270935 0.4345398 -0.82470703 0.64556885 -1.1928406c0.7666626 -1.3339844 1.4895935 -2.3238525 2.1688232 -2.9696045c0.6859436 -0.6542511 1.3786316 -0.9813843 2.078003 -0.9813843c0.57836914 0 1.0222168 0.15719604 1.3315735 0.47157288c0.30932617 0.3058777 0.53463745 0.7349701 0.6758423 1.287262c0.14794922 0.5437927 0.22192383 1.2362671 0.22192383 2.0774536l0 22.775528c0 0.16143799 -0.09414673 0.2931366 -0.2824402 0.39511108c-0.18157959 0.10195923 -0.39678955 0.16993713 -0.64559937 0.20391846c-0.24884033 0.025482178 -0.51782227 0.038238525 -0.80700684 0.038238525l-0.121032715 0l0 6.181381l18.9039 0l0 -6.181381l-0.18154907 0c-0.7464905 0 -1.3382874 -0.24641418 -1.7754211 -0.7392273c-0.4303894 -0.50131226 -0.64559937 -1.4571838 -0.64559937 -2.8676453l0 -20.124557c0 -2.922882 -0.3934021 -5.3741913 -1.1802063 -7.3539276c-0.78012085 -1.9882507 -1.9267273 -3.5049133 -3.4398499 -4.5500183c-1.5063782 -1.0450897 -3.3322144 -1.5676422 -5.477478 -1.5676422c-1.8628235 0 -3.6315002 0.49705505 -5.3060303 1.4911804c-1.6744995 0.9941101 -3.1741943 2.3790894 -4.498993 4.154907c-0.7647705 1.0253906 -1.4468689 2.1408691 -2.0463867 3.3464508l0 0c-0.19866943 -1.0488892 -0.47485352 -2.0071716 -0.82855225 -2.874878c-0.80700684 -1.9882507 -1.9636841 -3.5049133 -3.4700928 -4.5500183c-1.5064087 -1.0450897 -3.3356018 -1.5676422 -5.4875793 -1.5676422z" fill-rule="evenodd"/><path fill="#eeeeee" d="m501.693 138.99213c-2.394104 0 -4.2636414 0.6669922 -5.6086426 2.0009918c-1.3450012 1.3254852 -2.0174866 3.2669983 -2.0174866 5.8245087c0 2.5575256 0.67248535 4.5032806 2.0174866 5.837265c1.3450012 1.3339996 3.2145386 2.0009918 5.6086426 2.0009918c2.441162 0 4.320801 -0.6669922 5.6388855 -2.0009918c1.3248291 -1.3339844 1.9872437 -3.2797394 1.9872437 -5.837265c0 -2.5575104 -0.66241455 -4.4990234 -1.9872437 -5.8245087c-1.3180847 -1.3339996 -3.1977234 -2.0009918 -5.6388855 -2.0009918zm-9.542755 19.028473l0 6.971573l0.4942932 0.1529541c0.74645996 0.20391846 1.2844543 0.4375763 1.6139832 0.7009735c0.3295288 0.26339722 0.4942932 0.7094879 0.4942932 1.3382416l0 23.565735c0 1.4104614 -0.2185669 2.366333 -0.6557007 2.8676453c-0.4303894 0.4928131 -1.0390015 0.7392273 -1.8258057 0.7392273l-0.12106323 0l0 6.181381l19.65039 0l0 -6.181381l-0.13113403 0c-0.7397461 0 -1.3382568 -0.24641418 -1.7955627 -0.7392273c-0.45059204 -0.50131226 -0.6758728 -1.4571838 -0.6758728 -2.8676453l0 -32.729477z" fill-rule="evenodd"/><path fill="#eeeeee" d="m543.71295 157.15393c-1.9368286 0 -3.7962646 0.5225525 -5.578369 1.5676422c-1.7753906 1.045105 -3.3355713 2.4555664 -4.680603 4.2313843c-0.86260986 1.1446686 -1.6107178 2.3970184 -2.2442017 3.7570343l0 0l-0.69122314 -8.689392l-15.746582 0l0 6.971573l0.49432373 0.1529541c0.49761963 0.15293884 0.90112305 0.31011963 1.2104492 0.47155762c0.3093872 0.1529541 0.53466797 0.33563232 0.6759033 0.5480499c0.14794922 0.20391846 0.22192383 0.5437927 0.22192383 1.0196075l0 23.565735c0 0.9431305 -0.10424805 1.6738586 -0.31274414 2.192154c-0.20172119 0.51831055 -0.48083496 0.883667 -0.83721924 1.0960846c-0.34973145 0.2124176 -0.7935791 0.31863403 -1.331604 0.31863403l-0.121032715 0l0 6.181381l19.216675 0l0 -6.181381l-0.25219727 0c-0.24884033 0 -0.51782227 -0.012756348 -0.80700684 -0.038238525c-0.28918457 -0.033981323 -0.5480957 -0.10195923 -0.7767334 -0.20391846c-0.22192383 -0.10197449 -0.33288574 -0.20393372 -0.33288574 -0.30589294l0 -21.102707l0 0c0.24963379 -0.49343872 0.4951172 -0.9490814 0.73638916 -1.3669434c0.7868042 -1.3594818 1.5736084 -2.4045868 2.3604736 -3.1352997c0.7868042 -0.7307129 1.5702515 -1.0960846 2.3503418 -1.0960846c0.6187134 0 1.1029053 0.15719604 1.4526367 0.47157288c0.35638428 0.3058777 0.6152954 0.7349701 0.7767334 1.287262c0.16809082 0.5437927 0.25219727 1.2362671 0.25219727 2.0774536l0 22.775528c0 0.16143799 -0.10424805 0.2931366 -0.31274414 0.39511108c-0.20172119 0.10195923 -0.46063232 0.16993713 -0.7767334 0.20391846c-0.30932617 0.025482178 -0.60858154 0.038238525 -0.8977661 0.038238525l-0.12109375 0l0 6.181381l19.156128 0l0 -6.181381l-0.19165039 0c-0.49090576 0 -0.9146118 -0.10621643 -1.2709961 -0.31863403c-0.34973145 -0.2124176 -0.6187134 -0.57777405 -0.80700684 -1.0960846c-0.18157959 -0.5182953 -0.2723999 -1.2490234 -0.2723999 -2.192154l0 -20.124557c0 -2.922882 -0.41357422 -5.3741913 -1.2407227 -7.3539276c-0.8272095 -1.9882507 -2.027588 -3.5049133 -3.6012573 -4.5500183c-1.5668945 -1.0450897 -3.4667358 -1.5676422 -5.699402 -1.5676422z" fill-rule="evenodd"/><path fill="#eeeeee" d="m563.3587 146.11665l0 8.220596c0 1.1980438 -0.18493652 2.0859528 -0.5548096 2.663742c-0.36987305 0.57777405 -0.8776245 0.9601288 -1.5231934 1.147049c-0.638855 0.17843628 -1.3920898 0.26765442 -2.2595825 0.26765442l-0.37322998 0l0 6.958832l4.2770386 0l0 22.316711c0 3.5006561 0.5985718 6.2578583 1.7955933 8.271591c1.2037964 2.0052338 2.8580933 3.4156952 4.9630127 4.2313843c2.1049194 0.80718994 4.5629272 1.2107849 7.3739624 1.2107849c1.3651733 0 2.6260986 -0.080718994 3.7827759 -0.24215698c1.1567383 -0.15293884 2.1688232 -0.3483734 3.036377 -0.5862732c0.8674927 -0.23791504 1.5299072 -0.43333435 1.9871826 -0.58628845l0 -7.9147186c-0.2487793 0 -0.75653076 0.09347534 -1.5231934 0.2803955c-0.7666626 0.17843628 -1.6038818 0.26765442 -2.5117798 0.26765442c-0.94818115 0 -1.7417603 -0.1529541 -2.3806152 -0.4588318c-0.638855 -0.31437683 -1.1365356 -0.90065 -1.492981 -1.7588196c-0.3496704 -0.8666687 -0.52453613 -2.1072083 -0.52453613 -3.7215881l0 -21.309845l8.735779 0l0 -7.3539276l-8.735779 0l0 -11.903946z" fill-rule="evenodd"/><path fill="#eeeeee" d="m608.174 164.90297c1.2374268 0 2.2058105 0.45881653 2.9052124 1.3764648c0.7061157 0.9176483 1.2037964 2.4343262 1.492981 4.5500183c0.28912354 2.1071777 0.43371582 4.9365997 0.43371582 8.488251c0 3.5516357 -0.14459229 6.398041 -0.43371582 8.53923c-0.28918457 2.1411743 -0.78686523 3.6960754 -1.492981 4.6647186c-0.69940186 0.9601288 -1.6677856 1.4401855 -2.9052124 1.4401855c-1.2373657 0 -2.1990356 -0.48005676 -2.8850098 -1.4401855c-0.6791992 -0.9686432 -1.1633911 -2.5235443 -1.4525757 -4.6647186c-0.28918457 -2.1411896 -0.43377686 -4.9875946 -0.43377686 -8.53923c0 -3.551651 0.14459229 -6.381073 0.43377686 -8.488251c0.28918457 -2.1156921 0.78344727 -3.63237 1.4828491 -4.5500183c0.7061157 -0.9176483 1.6577148 -1.3764648 2.8547363 -1.3764648zm0 -7.7490387c-3.140564 0 -5.9213257 0.50979614 -8.342285 1.529419c-2.4143066 1.0196075 -4.458679 2.4937897 -6.1332397 4.4225464c-1.6744995 1.928772 -2.9454956 4.2653656 -3.8130493 7.0098267c-0.8674927 2.7444458 -1.3012695 5.837265 -1.3012695 9.278442c0 4.4947815 0.76330566 8.399033 2.289856 11.712769c1.5333252 3.313736 3.7559204 5.8712616 6.6678467 7.6725616c2.9118652 1.8013153 6.4559326 2.7019653 10.632141 2.7019653c4.216614 0 7.7808228 -0.90065 10.692749 -2.7019653c2.9119263 -1.8013 5.1210938 -4.3588257 6.6274414 -7.6725616c1.5064087 -3.313736 2.2596436 -7.217987 2.2596436 -11.712769c0 -3.4411774 -0.42370605 -6.5169983 -1.2710571 -9.227463c-0.8473511 -2.7189636 -2.1082764 -5.0555725 -3.7827759 -7.0098267c-1.6677856 -1.962738 -3.72229 -3.4539185 -6.163452 -4.473526c-2.4344482 -1.0196228 -5.221924 -1.529419 -8.362549 -1.529419z" fill-rule="evenodd"/><path fill="#eeeeee" d="m651.0624 164.90297c1.2374268 0 2.2058105 0.45881653 2.9052124 1.3764648c0.7061157 0.9176483 1.2037354 2.4343262 1.4929199 4.5500183c0.28918457 2.1071777 0.43377686 4.9365997 0.43377686 8.488251c0 3.5516357 -0.14459229 6.398041 -0.43377686 8.53923c-0.28918457 2.1411743 -0.7868042 3.6960754 -1.4929199 4.6647186c-0.69940186 0.9601288 -1.6677856 1.4401855 -2.9052124 1.4401855c-1.2373657 0 -2.1990356 -0.48005676 -2.8850098 -1.4401855c-0.6791992 -0.9686432 -1.1634521 -2.5235443 -1.4525757 -4.6647186c-0.28918457 -2.1411896 -0.43377686 -4.9875946 -0.43377686 -8.53923c0 -3.551651 0.14459229 -6.381073 0.43377686 -8.488251c0.28912354 -2.1156921 0.78344727 -3.63237 1.4828491 -4.5500183c0.7061157 -0.9176483 1.6577148 -1.3764648 2.8547363 -1.3764648zm0 -7.7490387c-3.140564 0 -5.9213257 0.50979614 -8.342346 1.529419c-2.4142456 1.0196075 -4.458618 2.4937897 -6.1331787 4.4225464c-1.6744995 1.928772 -2.9455566 4.2653656 -3.8130493 7.0098267c-0.8675537 2.7444458 -1.3012695 5.837265 -1.3012695 9.278442c0 4.4947815 0.7632446 8.399033 2.289856 11.712769c1.5332642 3.313736 3.7558594 5.8712616 6.6677856 7.6725616c2.9119263 1.8013153 6.4559937 2.7019653 10.632202 2.7019653c4.2165527 0 7.7808228 -0.90065 10.692749 -2.7019653c2.9118652 -1.8013 5.1210327 -4.3588257 6.6274414 -7.6725616c1.5064087 -3.313736 2.2595825 -7.217987 2.2595825 -11.712769c0 -3.4411774 -0.42364502 -6.5169983 -1.2709961 -9.227463c-0.8473511 -2.7189636 -2.1082764 -5.0555725 -3.782837 -7.0098267c-1.6677856 -1.962738 -3.722229 -3.4539185 -6.163391 -4.473526c-2.4344482 -1.0196228 -5.221985 -1.529419 -8.362549 -1.529419z" fill-rule="evenodd"/><path fill="#eeeeee" d="m674.1159 141.18428l0 6.729431l0.4942627 0.16569519c0.45733643 0.15293884 0.850708 0.31011963 1.1802368 0.47155762c0.3295288 0.15293884 0.5648804 0.3483734 0.7061157 0.5862732c0.14794922 0.2294159 0.22192383 0.55229187 0.22192383 0.9686432l0 40.644196c0 1.4104614 -0.2185669 2.366333 -0.6557007 2.8676453c-0.4303589 0.4928131 -1.0390015 0.7392273 -1.8258057 0.7392273l-0.121032715 0l0 6.181381l19.65039 0l0 -6.181381l-0.13116455 0c-0.7397461 0 -1.3382568 -0.24641418 -1.7955322 -0.7392273c-0.45062256 -0.50131226 -0.6759033 -1.4571838 -0.6759033 -2.8676453l0 -49.565796z" fill-rule="evenodd"/><path fill="#eeeeee" d="m714.46576 157.00099c-3.2212524 0 -6.072632 0.48431396 -8.554138 1.4529419c-2.4815674 0.9601288 -4.425049 2.4980469 -5.8305664 4.6137238c-1.4055176 2.1156921 -2.1082764 4.923874 -2.1082764 8.42453c0 2.3960876 0.3395996 4.3928223 1.0187988 5.990219c0.6859741 1.5888824 1.6072998 2.8549042 2.763977 3.7980347c1.1566772 0.9346466 2.4277344 1.6908569 3.8130493 2.268631c1.385376 0.56929016 2.7808228 1.062088 4.1863403 1.4784393c0.9885254 0.31437683 1.9266968 0.59051514 2.814392 0.8284302c0.8876953 0.23791504 1.6812134 0.5395508 2.3806152 0.9049072c0.7061157 0.36535645 1.2542114 0.82418823 1.6442871 1.3764801c0.39678955 0.54377747 0.5951538 1.2830048 0.5951538 2.2176514c0 0.9941101 -0.16479492 1.8055573 -0.4942627 2.434311c-0.3295288 0.6202545 -0.8473511 1.062088 -1.5534668 1.3255005c-0.6994629 0.26339722 -1.6275024 0.39509583 -2.7841797 0.39509583c-1.116333 0 -2.128418 -0.07647705 -3.036316 -0.2294159c-0.7765503 -0.13809204 -1.4793091 -0.32279968 -2.1082764 -0.5541382l0 0l0 -6.188034l-9.6032715 0l0 10.4127655c0.57836914 0.36535645 1.5265503 0.8369293 2.8446655 1.4147186c1.3248291 0.5692749 2.9892578 1.062088 4.993286 1.4784241c2.0040283 0.4248352 4.243469 0.6372528 6.7182617 0.6372528c4.09552 0 7.494995 -0.5352936 10.198425 -1.6058807c2.710144 -1.0705872 4.7142334 -2.752945 6.012146 -5.0470734c1.3046265 -2.3026123 1.9569702 -5.3062134 1.9569702 -9.010803c0 -2.2941132 -0.37322998 -4.222885 -1.11969 -5.7862854c-0.746521 -1.5718994 -1.7384644 -2.8549042 -2.97583 -3.8490143c-1.2373657 -0.99412537 -2.5891113 -1.7885742 -4.055176 -2.3833466c-1.4660645 -0.6032715 -2.921997 -1.1385651 -4.367859 -1.6058807c-1.116333 -0.3653717 -2.1419067 -0.67974854 -3.0766602 -0.94314575c-0.9281006 -0.26339722 -1.7451782 -0.54803467 -2.451294 -0.85391235c-0.69940186 -0.3143921 -1.2340088 -0.71798706 -1.6038818 -1.2108002c-0.36987305 -0.501297 -0.5548096 -1.1682892 -0.5548096 -2.0009766c0 -1.206543 0.3597412 -2.0434723 1.0793457 -2.510788c0.72631836 -0.46733093 1.8325806 -0.70098877 3.3187866 -0.70098877c0.9482422 0 1.7921753 0.06373596 2.5319214 0.19117737c0.62677 0.10700989 1.2084961 0.2529602 1.7451782 0.4378357l0 0l0 4.9278717l9.421692 0l0 -9.393158c-0.3765869 -0.26341248 -1.1432495 -0.64151 -2.2999268 -1.1343231c-1.1567383 -0.50131226 -2.6866455 -0.9601288 -4.5898438 -1.3764648c-1.8964233 -0.41635132 -4.1862793 -0.6245117 -6.869568 -0.6245117z" fill-rule="evenodd"/><path stroke="#595959" stroke-width="1.0" stroke-linejoin="round" stroke-linecap="butt" d="m249.44449 166.55983c1.0356445 0 1.9132538 0.36535645 2.6328278 1.0960846c0.6586609 0.66267395 1.3311615 1.6153717 2.0175018 2.8580627l0 0l0 16.452393l0 0c-0.07524109 0.14326477 -0.14923096 0.2829132 -0.22192383 0.4189911c-0.8876953 1.6653595 -1.7148743 2.8506622 -2.4815216 3.555893c-0.7599335 0.7052307 -1.6139984 1.0578461 -2.56221 1.0578461c-0.8675232 0 -1.580368 -0.2336731 -2.1385498 -0.70098877c-0.55818176 -0.46731567 -1.0020294 -1.1980438 -1.331543 -2.192154c-0.3295288 -0.99412537 -0.5581665 -2.2473907 -0.68595886 -3.7598114c-0.12104797 -1.5124207 -0.18156433 -3.3392334 -0.18156433 -5.4804077c0 -2.1921692 0.080703735 -4.120926 0.24209595 -5.7862854c0.16812134 -1.6738586 0.4472046 -3.058838 0.837265 -4.154907c0.3967743 -1.0960846 0.9146118 -1.928772 1.5534668 -2.4980469c0.6388855 -0.57777405 1.4122467 -0.8666687 2.3201141 -0.8666687zm1.9872284 -25.37555l0 6.729431l0.37324524 0.16569519c0.49092102 0.20391846 0.9011383 0.38659668 1.2306671 0.54803467c0.33625793 0.15293884 0.59516907 0.33561707 0.7767334 0.54803467c0.18829346 0.20391846 0.28245544 0.51405334 0.28245544 0.93040466l0 12.657272l0 0c-1.0796814 -1.7323303 -2.3607788 -3.0667725 -3.8433228 -4.0033417c-1.6072845 -1.0196075 -3.466751 -1.529419 -5.5783844 -1.529419c-3.053131 0 -5.706131 0.9813843 -7.959015 2.9441223c-2.2528687 1.9542542 -3.9912872 4.6434784 -5.21521 8.067673c-1.2172241 3.4156952 -1.8258362 7.290207 -1.8258362 11.62355c0 4.2313843 0.55818176 7.9656982 1.6745148 11.202957c1.1163483 3.2372742 2.7370605 5.7693024 4.8621674 7.5961c2.1318207 1.8267975 4.7478485 2.7402039 7.848053 2.7402039c2.2730408 0 4.203125 -0.560791 5.790207 -1.6823578c1.5938263 -1.1300659 2.9690857 -2.761444 4.125778 -4.8941345c0.32234192 -0.5966797 0.6365967 -1.2280121 0.9427185 -1.8939819l0 0l0.6712799 7.6038055l15.554871 0l0 -6.729431l-0.43374634 -0.16567993c-0.7464905 -0.25489807 -1.2844849 -0.50131226 -1.6140137 -0.7392273c-0.3294983 -0.23789978 -0.4942627 -0.6669769 -0.4942627 -1.2872467l0 -50.432465z" fill-rule="evenodd"/><path stroke="#595959" stroke-width="1.0" stroke-linejoin="round" stroke-linecap="butt" d="m283.6565 138.99213c-2.394104 0 -4.2636414 0.6669922 -5.6086426 2.0009918c-1.3450012 1.3254852 -2.0174866 3.2669983 -2.0174866 5.8245087c0 2.5575256 0.67248535 4.5032806 2.0174866 5.837265c1.3450012 1.3339996 3.214569 2.0009918 5.6086426 2.0009918c2.441162 0 4.320801 -0.6669922 5.6388855 -2.0009918c1.3248291 -1.3339844 1.9872437 -3.2797394 1.9872437 -5.837265c0 -2.5575104 -0.66241455 -4.4990234 -1.9872437 -5.8245087c-1.3180847 -1.3339996 -3.1977234 -2.0009918 -5.6388855 -2.0009918zm-9.542755 19.028473l0 6.971573l0.4942932 0.1529541c0.74645996 0.20391846 1.2844849 0.4375763 1.6139832 0.7009735c0.3295288 0.26339722 0.4942932 0.7094879 0.4942932 1.3382416l0 23.565735c0 1.4104614 -0.2185669 2.366333 -0.6557007 2.8676453c-0.4303894 0.4928131 -1.0390015 0.7392273 -1.8258057 0.7392273l-0.12106323 0l0 6.181381l19.65039 0l0 -6.181381l-0.13113403 0c-0.7397461 0 -1.3382874 -0.24641418 -1.7955627 -0.7392273c-0.45056152 -0.50131226 -0.6758728 -1.4571838 -0.6758728 -2.8676453l0 -32.729477z" fill-rule="evenodd"/><path stroke="#595959" stroke-width="1.0" stroke-linejoin="round" stroke-linecap="butt" d="m313.84384 157.00099c-3.221283 0 -6.0726624 0.48431396 -8.554169 1.4529419c-2.4815369 0.9601288 -4.425049 2.4980469 -5.8305664 4.6137238c-1.4055176 2.1156921 -2.1082764 4.923874 -2.1082764 8.42453c0 2.3960876 0.3395996 4.3928223 1.0188293 5.990219c0.6859436 1.5888824 1.6072693 2.8549042 2.763977 3.7980347c1.1566772 0.9346466 2.4277039 1.6908569 3.8130493 2.268631c1.3853455 0.56929016 2.7807922 1.062088 4.18631 1.4784393c0.9885559 0.31437683 1.9266968 0.59051514 2.814392 0.8284302c0.8876953 0.23791504 1.6812439 0.5395508 2.3806458 0.9049072c0.7061157 0.36535645 1.2542114 0.82418823 1.6442566 1.3764801c0.39678955 0.54377747 0.5951538 1.2830048 0.5951538 2.2176514c0 0.9941101 -0.16473389 1.8055573 -0.4942627 2.434311c-0.3295288 0.6202545 -0.8473511 1.062088 -1.5534668 1.3255005c-0.69940186 0.26339722 -1.6274719 0.39509583 -2.7841492 0.39509583c-1.116333 0 -2.1284485 -0.07647705 -3.0363464 -0.2294159c-0.7765503 -0.13809204 -1.4793091 -0.32279968 -2.1082764 -0.5541382l0 0l0 -6.188034l-9.6032715 0l0 10.4127655c0.57836914 0.36535645 1.5265808 0.8369293 2.8446655 1.4147186c1.3248291 0.5692749 2.9892578 1.062088 4.9933167 1.4784241c2.0040283 0.4248352 4.2434387 0.6372528 6.718231 0.6372528c4.09552 0 7.494995 -0.5352936 10.198456 -1.6058807c2.7101746 -1.0705872 4.714203 -2.752945 6.0121155 -5.0470734c1.304657 -2.3026123 1.9569702 -5.3062134 1.9569702 -9.010803c0 -2.2941132 -0.37322998 -4.222885 -1.11969 -5.7862854c-0.7464905 -1.5718994 -1.7384033 -2.8549042 -2.9757996 -3.8490143c-1.2374268 -0.99412537 -2.5891418 -1.7885742 -4.055176 -2.3833466c-1.4660339 -0.6032715 -2.921997 -1.1385651 -4.3678894 -1.6058807c-1.116333 -0.3653717 -2.1419067 -0.67974854 -3.0766602 -0.94314575c-0.92807007 -0.26339722 -1.7451477 -0.54803467 -2.4512634 -0.85391235c-0.69940186 -0.3143921 -1.2340393 -0.71798706 -1.6039124 -1.2108002c-0.36987305 -0.501297 -0.5548096 -1.1682892 -0.5548096 -2.0009766c0 -1.206543 0.35977173 -2.0434723 1.0793762 -2.510788c0.72628784 -0.46733093 1.83255 -0.70098877 3.318756 -0.70098877c0.9482422 0 1.7922058 0.06373596 2.531952 0.19117737c0.62677 0.10700989 1.2084656 0.2529602 1.7451477 0.4378357l0 0l0 4.9278717l9.421692 0l0 -9.393158c-0.3765869 -0.26341248 -1.1432495 -0.64151 -2.2999268 -1.1343231c-1.1567078 -0.50131226 -2.6866455 -0.9601288 -4.589813 -1.3764648c-1.8964539 -0.41635132 -4.18631 -0.6245117 -6.869568 -0.6245117z" fill-rule="evenodd"/><path stroke="#595959" stroke-width="1.0" stroke-linejoin="round" stroke-linecap="butt" d="m353.0159 157.2304c-4.1762085 0 -7.743805 0.8369293 -10.702789 2.510788c-2.9522705 1.6738586 -5.2253113 4.142166 -6.819153 7.4049225c-1.5870667 3.2627563 -2.3806458 7.294464 -2.3806458 12.095123c0 4.9026184 0.8372803 9.002304 2.5118103 12.299042c1.6744995 3.2882385 3.9778137 5.756546 6.909912 7.4049225c2.9320984 1.6398621 6.321472 2.4598083 10.168152 2.4598083c2.6025696 0 4.8722534 -0.48431396 6.8090515 -1.4529419c1.9435425 -0.9686279 3.587799 -2.3408508 4.93277 -4.116684c1.3450012 -1.7758179 2.4310913 -3.8617706 3.2582703 -6.2578583l-4.710846 -3.6068573c-0.5379944 1.2575073 -1.170166 2.4598083 -1.8964539 3.6068573c-0.719574 1.1470642 -1.5568237 2.0732117 -2.5117798 2.7784424c-0.94821167 0.7052307 -2.0208435 1.0578461 -3.2178955 1.0578461c-1.3248291 0 -2.4512634 -0.25915527 -3.379303 -0.77745056c-0.92807007 -0.52679443 -1.6913452 -1.3509827 -2.289856 -2.4725494c-0.59854126 -1.121582 -1.0423889 -2.5830078 -1.3315735 -4.384323c-0.28915405 -1.8013153 -0.43374634 -3.9807281 -0.43374634 -6.538254c0 -3.3392181 0.19500732 -6.066681 0.585083 -8.182373c0.39004517 -2.1156921 1.0188293 -3.6705933 1.8863525 -4.6647186c0.87423706 -0.9941101 2.0107727 -1.4911652 3.409546 -1.4911652c0.9146118 0 1.647644 0.16992188 2.1990967 0.50979614c0.053894043 0.032821655 0.107666016 0.06674194 0.16137695 0.10177612l0 0l0 8.794327l10.470795 0l0 -13.701019c-0.5379944 -0.4248352 -1.4155884 -0.8963928 -2.6328125 -1.4147034c-1.2172241 -0.5182953 -2.7471619 -0.97288513 -4.589813 -1.3637238c-1.835907 -0.39935303 -3.9710999 -0.59902954 -6.405548 -0.59902954z" fill-rule="evenodd"/><path stroke="#595959" stroke-width="1.0" stroke-linejoin="round" stroke-linecap="butt" d="m397.4482 157.39609c-1.9838562 0 -3.594513 0.62875366 -4.8318787 1.8862762c-1.2373962 1.2490234 -2.2932434 3.0503235 -3.1674805 5.4039307c-0.56500244 1.5273132 -1.1556702 3.254654 -1.7720032 5.182022l0 0l-0.8305664 -11.847717l-15.675934 0l0 6.971573l0.4942932 0.1529541c0.49765015 0.15293884 0.90115356 0.31011963 1.2105103 0.47155762c0.30932617 0.1529541 0.53460693 0.3483734 0.6758423 0.58628845c0.14794922 0.23789978 0.22192383 0.56503296 0.22192383 0.981369l0 23.565735c0 1.4104614 -0.2185669 2.366333 -0.65567017 2.8676453c-0.43041992 0.4928131 -1.039032 0.7392273 -1.8258362 0.7392273l-0.12106323 0l0 6.181381l21.072723 0l0 -6.181381l-0.25216675 0c-0.6590576 0 -1.2777405 -0.012756348 -1.8561096 -0.038238525c-0.5783386 -0.033981323 -1.0423584 -0.10195923 -1.3920593 -0.20391846c-0.34970093 -0.10197449 -0.52456665 -0.2336731 -0.52456665 -0.39511108l0 -19.162094l0 0c0.049926758 -0.032913208 0.100372314 -0.06484985 0.15133667 -0.09577942c0.51782227 -0.31437683 1.0860596 -0.560791 1.704773 -0.73921204c0.61868286 -0.18693542 1.2878113 -0.31863403 2.0074158 -0.39511108c0.72628784 -0.07646179 1.462677 -0.11470032 2.209137 -0.11470032c0.69940186 0 1.4324341 0.025482178 2.1990662 0.07647705c0.7666626 0.050979614 1.4794922 0.11470032 2.1385498 0.19117737c0.6590576 0.07646179 1.1533508 0.1444397 1.4828796 0.20391846l0 -15.740234c-0.16140747 -0.110458374 -0.48083496 -0.2294159 -0.958313 -0.3568573c-0.47747803 -0.12745667 -1.0457458 -0.19117737 -1.7048035 -0.19117737z" fill-rule="evenodd"/><path stroke="#595959" stroke-width="1.0" stroke-linejoin="round" stroke-linecap="butt" d="m413.3132 138.99213c-2.3940735 0 -4.2636414 0.6669922 -5.608612 2.0009918c-1.3450012 1.3254852 -2.017517 3.2669983 -2.017517 5.8245087c0 2.5575256 0.67251587 4.5032806 2.017517 5.837265c1.3450012 1.3339996 3.2145386 2.0009918 5.608612 2.0009918c2.4411926 0 4.320801 -0.6669922 5.638916 -2.0009918c1.3248291 -1.3339844 1.9872131 -3.2797394 1.9872131 -5.837265c0 -2.5575104 -0.66238403 -4.4990234 -1.9872131 -5.8245087c-1.3181152 -1.3339996 -3.1977234 -2.0009918 -5.638916 -2.0009918zm-9.542725 19.028473l0 6.971573l0.4942627 0.1529541c0.7464905 0.20391846 1.2844849 0.4375763 1.6140137 0.7009735c0.3295288 0.26339722 0.4942932 0.7094879 0.4942932 1.3382416l0 23.565735c0 1.4104614 -0.2185669 2.366333 -0.6557007 2.8676453c-0.4303894 0.4928131 -1.0390015 0.7392273 -1.8258362 0.7392273l-0.121032715 0l0 6.181381l19.65039 0l0 -6.181381l-0.13113403 0c-0.7397461 0 -1.3382874 -0.24641418 -1.7955933 -0.7392273c-0.45056152 -0.50131226 -0.6758423 -1.4571838 -0.6758423 -2.8676453l0 -32.729477z" fill-rule="evenodd"/><path stroke="#595959" stroke-width="1.0" stroke-linejoin="round" stroke-linecap="butt" d="m454.8994 157.15393c-1.8561096 0 -3.621399 0.50979614 -5.295929 1.529419c-1.67453 1.0196075 -3.1741943 2.4173126 -4.4990234 4.1931458c-0.8718567 1.1746368 -1.636322 2.4626617 -2.293396 3.8640747l0 0l-0.67230225 -8.719971l-15.7465515 0l0 6.971573l0.4942932 0.1529541c0.49765015 0.15293884 0.90115356 0.31011963 1.2104797 0.47155762c0.3093567 0.1529541 0.53463745 0.3483734 0.6758728 0.58628845c0.14794922 0.23789978 0.22192383 0.56503296 0.22192383 0.981369l0 23.565735c0 1.4104614 -0.2185669 2.366333 -0.6557007 2.8676453c-0.4303894 0.4928131 -1.0390015 0.7392273 -1.8258057 0.7392273l-0.12106323 0l0 6.181381l18.90393 0l0 -6.181381l-0.25219727 0c-0.20175171 0 -0.42703247 -0.012756348 -0.6758423 -0.038238525c-0.24884033 -0.033981323 -0.46740723 -0.10195923 -0.6557007 -0.20391846c-0.18157959 -0.10197449 -0.27236938 -0.2336731 -0.27236938 -0.39511108l0 -21.422363l0 0c0.24032593 -0.49246216 0.475708 -0.94351196 0.70614624 -1.3531647c0.7666321 -1.3594818 1.4996643 -2.336609 2.1990662 -2.9313812c0.7061157 -0.6032715 1.3685303 -0.9049072 1.9872131 -0.9049072c0.57836914 0 1.0322876 0.15719604 1.3618164 0.47157288c0.3295288 0.3058777 0.5548096 0.7349701 0.6758728 1.287262c0.1277771 0.5437927 0.19165039 1.2362671 0.19165039 2.0774536l0 22.775528c0 0.16143799 -0.08407593 0.2931366 -0.25219727 0.39511108c-0.16137695 0.10195923 -0.3765869 0.16993713 -0.64559937 0.20391846c-0.26898193 0.025482178 -0.52789307 0.038238525 -0.7767334 0.038238525l-0.18157959 0l0 6.181381l18.217987 0l0 -6.181381l-0.18157959 0c-0.20846558 0 -0.4472046 -0.012756348 -0.71621704 -0.038238525c-0.26898193 -0.033981323 -0.49765015 -0.10195923 -0.6859436 -0.20391846c-0.18157959 -0.10197449 -0.27233887 -0.2336731 -0.27233887 -0.39511108l0 -21.467987l0 0c0.21932983 -0.4270935 0.4345398 -0.82470703 0.64556885 -1.1928406c0.7666626 -1.3339844 1.4895935 -2.3238525 2.1688232 -2.9696045c0.6859436 -0.6542511 1.3786316 -0.9813843 2.078003 -0.9813843c0.57836914 0 1.0222168 0.15719604 1.3315735 0.47157288c0.30932617 0.3058777 0.53463745 0.7349701 0.6758423 1.287262c0.14794922 0.5437927 0.22192383 1.2362671 0.22192383 2.0774536l0 22.775528c0 0.16143799 -0.09414673 0.2931366 -0.2824402 0.39511108c-0.18157959 0.10195923 -0.39678955 0.16993713 -0.64559937 0.20391846c-0.24884033 0.025482178 -0.51782227 0.038238525 -0.80700684 0.038238525l-0.121032715 0l0 6.181381l18.9039 0l0 -6.181381l-0.18154907 0c-0.7464905 0 -1.3382874 -0.24641418 -1.7754211 -0.7392273c-0.4303894 -0.50131226 -0.64559937 -1.4571838 -0.64559937 -2.8676453l0 -20.124557c0 -2.922882 -0.3934021 -5.3741913 -1.1802063 -7.3539276c-0.78012085 -1.9882507 -1.9267273 -3.5049133 -3.4398499 -4.5500183c-1.5063782 -1.0450897 -3.3322144 -1.5676422 -5.477478 -1.5676422c-1.8628235 0 -3.6315002 0.49705505 -5.3060303 1.4911804c-1.6744995 0.9941101 -3.1741943 2.3790894 -4.498993 4.154907c-0.7647705 1.0253906 -1.4468689 2.1408691 -2.0463867 3.3464508l0 0c-0.19866943 -1.0488892 -0.47485352 -2.0071716 -0.82855225 -2.874878c-0.80700684 -1.9882507 -1.9636841 -3.5049133 -3.4700928 -4.5500183c-1.5064087 -1.0450897 -3.3356018 -1.5676422 -5.4875793 -1.5676422z" fill-rule="evenodd"/><path stroke="#595959" stroke-width="1.0" stroke-linejoin="round" stroke-linecap="butt" d="m501.693 138.99213c-2.394104 0 -4.2636414 0.6669922 -5.6086426 2.0009918c-1.3450012 1.3254852 -2.0174866 3.2669983 -2.0174866 5.8245087c0 2.5575256 0.67248535 4.5032806 2.0174866 5.837265c1.3450012 1.3339996 3.2145386 2.0009918 5.6086426 2.0009918c2.441162 0 4.320801 -0.6669922 5.6388855 -2.0009918c1.3248291 -1.3339844 1.9872437 -3.2797394 1.9872437 -5.837265c0 -2.5575104 -0.66241455 -4.4990234 -1.9872437 -5.8245087c-1.3180847 -1.3339996 -3.1977234 -2.0009918 -5.6388855 -2.0009918zm-9.542755 19.028473l0 6.971573l0.4942932 0.1529541c0.74645996 0.20391846 1.2844543 0.4375763 1.6139832 0.7009735c0.3295288 0.26339722 0.4942932 0.7094879 0.4942932 1.3382416l0 23.565735c0 1.4104614 -0.2185669 2.366333 -0.6557007 2.8676453c-0.4303894 0.4928131 -1.0390015 0.7392273 -1.8258057 0.7392273l-0.12106323 0l0 6.181381l19.65039 0l0 -6.181381l-0.13113403 0c-0.7397461 0 -1.3382568 -0.24641418 -1.7955627 -0.7392273c-0.45059204 -0.50131226 -0.6758728 -1.4571838 -0.6758728 -2.8676453l0 -32.729477z" fill-rule="evenodd"/><path stroke="#595959" stroke-width="1.0" stroke-linejoin="round" stroke-linecap="butt" d="m543.71295 157.15393c-1.9368286 0 -3.7962646 0.5225525 -5.578369 1.5676422c-1.7753906 1.045105 -3.3355713 2.4555664 -4.680603 4.2313843c-0.86260986 1.1446686 -1.6107178 2.3970184 -2.2442017 3.7570343l0 0l-0.69122314 -8.689392l-15.746582 0l0 6.971573l0.49432373 0.1529541c0.49761963 0.15293884 0.90112305 0.31011963 1.2104492 0.47155762c0.3093872 0.1529541 0.53466797 0.33563232 0.6759033 0.5480499c0.14794922 0.20391846 0.22192383 0.5437927 0.22192383 1.0196075l0 23.565735c0 0.9431305 -0.10424805 1.6738586 -0.31274414 2.192154c-0.20172119 0.51831055 -0.48083496 0.883667 -0.83721924 1.0960846c-0.34973145 0.2124176 -0.7935791 0.31863403 -1.331604 0.31863403l-0.121032715 0l0 6.181381l19.216675 0l0 -6.181381l-0.25219727 0c-0.24884033 0 -0.51782227 -0.012756348 -0.80700684 -0.038238525c-0.28918457 -0.033981323 -0.5480957 -0.10195923 -0.7767334 -0.20391846c-0.22192383 -0.10197449 -0.33288574 -0.20393372 -0.33288574 -0.30589294l0 -21.102707l0 0c0.24963379 -0.49343872 0.4951172 -0.9490814 0.73638916 -1.3669434c0.7868042 -1.3594818 1.5736084 -2.4045868 2.3604736 -3.1352997c0.7868042 -0.7307129 1.5702515 -1.0960846 2.3503418 -1.0960846c0.6187134 0 1.1029053 0.15719604 1.4526367 0.47157288c0.35638428 0.3058777 0.6152954 0.7349701 0.7767334 1.287262c0.16809082 0.5437927 0.25219727 1.2362671 0.25219727 2.0774536l0 22.775528c0 0.16143799 -0.10424805 0.2931366 -0.31274414 0.39511108c-0.20172119 0.10195923 -0.46063232 0.16993713 -0.7767334 0.20391846c-0.30932617 0.025482178 -0.60858154 0.038238525 -0.8977661 0.038238525l-0.12109375 0l0 6.181381l19.156128 0l0 -6.181381l-0.19165039 0c-0.49090576 0 -0.9146118 -0.10621643 -1.2709961 -0.31863403c-0.34973145 -0.2124176 -0.6187134 -0.57777405 -0.80700684 -1.0960846c-0.18157959 -0.5182953 -0.2723999 -1.2490234 -0.2723999 -2.192154l0 -20.124557c0 -2.922882 -0.41357422 -5.3741913 -1.2407227 -7.3539276c-0.8272095 -1.9882507 -2.027588 -3.5049133 -3.6012573 -4.5500183c-1.5668945 -1.0450897 -3.4667358 -1.5676422 -5.699402 -1.5676422z" fill-rule="evenodd"/><path stroke="#595959" stroke-width="1.0" stroke-linejoin="round" stroke-linecap="butt" d="m563.3587 146.11665l0 8.220596c0 1.1980438 -0.18493652 2.0859528 -0.5548096 2.663742c-0.36987305 0.57777405 -0.8776245 0.9601288 -1.5231934 1.147049c-0.638855 0.17843628 -1.3920898 0.26765442 -2.2595825 0.26765442l-0.37322998 0l0 6.958832l4.2770386 0l0 22.316711c0 3.5006561 0.5985718 6.2578583 1.7955933 8.271591c1.2037964 2.0052338 2.8580933 3.4156952 4.9630127 4.2313843c2.1049194 0.80718994 4.5629272 1.2107849 7.3739624 1.2107849c1.3651733 0 2.6260986 -0.080718994 3.7827759 -0.24215698c1.1567383 -0.15293884 2.1688232 -0.3483734 3.036377 -0.5862732c0.8674927 -0.23791504 1.5299072 -0.43333435 1.9871826 -0.58628845l0 -7.9147186c-0.2487793 0 -0.75653076 0.09347534 -1.5231934 0.2803955c-0.7666626 0.17843628 -1.6038818 0.26765442 -2.5117798 0.26765442c-0.94818115 0 -1.7417603 -0.1529541 -2.3806152 -0.4588318c-0.638855 -0.31437683 -1.1365356 -0.90065 -1.492981 -1.7588196c-0.3496704 -0.8666687 -0.52453613 -2.1072083 -0.52453613 -3.7215881l0 -21.309845l8.735779 0l0 -7.3539276l-8.735779 0l0 -11.903946z" fill-rule="evenodd"/><path stroke="#595959" stroke-width="1.0" stroke-linejoin="round" stroke-linecap="butt" d="m608.174 164.90297c1.2374268 0 2.2058105 0.45881653 2.9052124 1.3764648c0.7061157 0.9176483 1.2037964 2.4343262 1.492981 4.5500183c0.28912354 2.1071777 0.43371582 4.9365997 0.43371582 8.488251c0 3.5516357 -0.14459229 6.398041 -0.43371582 8.53923c-0.28918457 2.1411743 -0.78686523 3.6960754 -1.492981 4.6647186c-0.69940186 0.9601288 -1.6677856 1.4401855 -2.9052124 1.4401855c-1.2373657 0 -2.1990356 -0.48005676 -2.8850098 -1.4401855c-0.6791992 -0.9686432 -1.1633911 -2.5235443 -1.4525757 -4.6647186c-0.28918457 -2.1411896 -0.43377686 -4.9875946 -0.43377686 -8.53923c0 -3.551651 0.14459229 -6.381073 0.43377686 -8.488251c0.28918457 -2.1156921 0.78344727 -3.63237 1.4828491 -4.5500183c0.7061157 -0.9176483 1.6577148 -1.3764648 2.8547363 -1.3764648zm0 -7.7490387c-3.140564 0 -5.9213257 0.50979614 -8.342285 1.529419c-2.4143066 1.0196075 -4.458679 2.4937897 -6.1332397 4.4225464c-1.6744995 1.928772 -2.9454956 4.2653656 -3.8130493 7.0098267c-0.8674927 2.7444458 -1.3012695 5.837265 -1.3012695 9.278442c0 4.4947815 0.76330566 8.399033 2.289856 11.712769c1.5333252 3.313736 3.7559204 5.8712616 6.6678467 7.6725616c2.9118652 1.8013153 6.4559326 2.7019653 10.632141 2.7019653c4.216614 0 7.7808228 -0.90065 10.692749 -2.7019653c2.9119263 -1.8013 5.1210938 -4.3588257 6.6274414 -7.6725616c1.5064087 -3.313736 2.2596436 -7.217987 2.2596436 -11.712769c0 -3.4411774 -0.42370605 -6.5169983 -1.2710571 -9.227463c-0.8473511 -2.7189636 -2.1082764 -5.0555725 -3.7827759 -7.0098267c-1.6677856 -1.962738 -3.72229 -3.4539185 -6.163452 -4.473526c-2.4344482 -1.0196228 -5.221924 -1.529419 -8.362549 -1.529419z" fill-rule="evenodd"/><path stroke="#595959" stroke-width="1.0" stroke-linejoin="round" stroke-linecap="butt" d="m651.0624 164.90297c1.2374268 0 2.2058105 0.45881653 2.9052124 1.3764648c0.7061157 0.9176483 1.2037354 2.4343262 1.4929199 4.5500183c0.28918457 2.1071777 0.43377686 4.9365997 0.43377686 8.488251c0 3.5516357 -0.14459229 6.398041 -0.43377686 8.53923c-0.28918457 2.1411743 -0.7868042 3.6960754 -1.4929199 4.6647186c-0.69940186 0.9601288 -1.6677856 1.4401855 -2.9052124 1.4401855c-1.2373657 0 -2.1990356 -0.48005676 -2.8850098 -1.4401855c-0.6791992 -0.9686432 -1.1634521 -2.5235443 -1.4525757 -4.6647186c-0.28918457 -2.1411896 -0.43377686 -4.9875946 -0.43377686 -8.53923c0 -3.551651 0.14459229 -6.381073 0.43377686 -8.488251c0.28912354 -2.1156921 0.78344727 -3.63237 1.4828491 -4.5500183c0.7061157 -0.9176483 1.6577148 -1.3764648 2.8547363 -1.3764648zm0 -7.7490387c-3.140564 0 -5.9213257 0.50979614 -8.342346 1.529419c-2.4142456 1.0196075 -4.458618 2.4937897 -6.1331787 4.4225464c-1.6744995 1.928772 -2.9455566 4.2653656 -3.8130493 7.0098267c-0.8675537 2.7444458 -1.3012695 5.837265 -1.3012695 9.278442c0 4.4947815 0.7632446 8.399033 2.289856 11.712769c1.5332642 3.313736 3.7558594 5.8712616 6.6677856 7.6725616c2.9119263 1.8013153 6.4559937 2.7019653 10.632202 2.7019653c4.2165527 0 7.7808228 -0.90065 10.692749 -2.7019653c2.9118652 -1.8013 5.1210327 -4.3588257 6.6274414 -7.6725616c1.5064087 -3.313736 2.2595825 -7.217987 2.2595825 -11.712769c0 -3.4411774 -0.42364502 -6.5169983 -1.2709961 -9.227463c-0.8473511 -2.7189636 -2.1082764 -5.0555725 -3.782837 -7.0098267c-1.6677856 -1.962738 -3.722229 -3.4539185 -6.163391 -4.473526c-2.4344482 -1.0196228 -5.221985 -1.529419 -8.362549 -1.529419z" fill-rule="evenodd"/><path stroke="#595959" stroke-width="1.0" stroke-linejoin="round" stroke-linecap="butt" d="m674.1159 141.18428l0 6.729431l0.4942627 0.16569519c0.45733643 0.15293884 0.850708 0.31011963 1.1802368 0.47155762c0.3295288 0.15293884 0.5648804 0.3483734 0.7061157 0.5862732c0.14794922 0.2294159 0.22192383 0.55229187 0.22192383 0.9686432l0 40.644196c0 1.4104614 -0.2185669 2.366333 -0.6557007 2.8676453c-0.4303589 0.4928131 -1.0390015 0.7392273 -1.8258057 0.7392273l-0.121032715 0l0 6.181381l19.65039 0l0 -6.181381l-0.13116455 0c-0.7397461 0 -1.3382568 -0.24641418 -1.7955322 -0.7392273c-0.45062256 -0.50131226 -0.6759033 -1.4571838 -0.6759033 -2.8676453l0 -49.565796z" fill-rule="evenodd"/><path stroke="#595959" stroke-width="1.0" stroke-linejoin="round" stroke-linecap="butt" d="m714.46576 157.00099c-3.2212524 0 -6.072632 0.48431396 -8.554138 1.4529419c-2.4815674 0.9601288 -4.425049 2.4980469 -5.8305664 4.6137238c-1.4055176 2.1156921 -2.1082764 4.923874 -2.1082764 8.42453c0 2.3960876 0.3395996 4.3928223 1.0187988 5.990219c0.6859741 1.5888824 1.6072998 2.8549042 2.763977 3.7980347c1.1566772 0.9346466 2.4277344 1.6908569 3.8130493 2.268631c1.385376 0.56929016 2.7808228 1.062088 4.1863403 1.4784393c0.9885254 0.31437683 1.9266968 0.59051514 2.814392 0.8284302c0.8876953 0.23791504 1.6812134 0.5395508 2.3806152 0.9049072c0.7061157 0.36535645 1.2542114 0.82418823 1.6442871 1.3764801c0.39678955 0.54377747 0.5951538 1.2830048 0.5951538 2.2176514c0 0.9941101 -0.16479492 1.8055573 -0.4942627 2.434311c-0.3295288 0.6202545 -0.8473511 1.062088 -1.5534668 1.3255005c-0.6994629 0.26339722 -1.6275024 0.39509583 -2.7841797 0.39509583c-1.116333 0 -2.128418 -0.07647705 -3.036316 -0.2294159c-0.7765503 -0.13809204 -1.4793091 -0.32279968 -2.1082764 -0.5541382l0 0l0 -6.188034l-9.6032715 0l0 10.4127655c0.57836914 0.36535645 1.5265503 0.8369293 2.8446655 1.4147186c1.3248291 0.5692749 2.9892578 1.062088 4.993286 1.4784241c2.0040283 0.4248352 4.243469 0.6372528 6.7182617 0.6372528c4.09552 0 7.494995 -0.5352936 10.198425 -1.6058807c2.710144 -1.0705872 4.7142334 -2.752945 6.012146 -5.0470734c1.3046265 -2.3026123 1.9569702 -5.3062134 1.9569702 -9.010803c0 -2.2941132 -0.37322998 -4.222885 -1.11969 -5.7862854c-0.746521 -1.5718994 -1.7384644 -2.8549042 -2.97583 -3.8490143c-1.2373657 -0.99412537 -2.5891113 -1.7885742 -4.055176 -2.3833466c-1.4660645 -0.6032715 -2.921997 -1.1385651 -4.367859 -1.6058807c-1.116333 -0.3653717 -2.1419067 -0.67974854 -3.0766602 -0.94314575c-0.9281006 -0.26339722 -1.7451782 -0.54803467 -2.451294 -0.85391235c-0.69940186 -0.3143921 -1.2340088 -0.71798706 -1.6038818 -1.2108002c-0.36987305 -0.501297 -0.5548096 -1.1682892 -0.5548096 -2.0009766c0 -1.206543 0.3597412 -2.0434723 1.0793457 -2.510788c0.72631836 -0.46733093 1.8325806 -0.70098877 3.3187866 -0.70098877c0.9482422 0 1.7921753 0.06373596 2.5319214 0.19117737c0.62677 0.10700989 1.2084961 0.2529602 1.7451782 0.4378357l0 0l0 4.9278717l9.421692 0l0 -9.393158c-0.3765869 -0.26341248 -1.1432495 -0.64151 -2.2999268 -1.1343231c-1.1567383 -0.50131226 -2.6866455 -0.9601288 -4.5898438 -1.3764648c-1.8964233 -0.41635132 -4.1862793 -0.6245117 -6.869568 -0.6245117z" fill-rule="evenodd"/></g></g><path fill="#ffffff" d="m354.50394 270.4882l250.9921 0l0 168.0l-250.9921 0z" fill-rule="evenodd"/><path stroke="#000000" stroke-width="1.0" stroke-linejoin="round" stroke-linecap="butt" d="m354.50394 270.4882l250.9921 0l0 168.0l-250.9921 0z" fill-rule="evenodd"/><path fill="#000000" fill-opacity="0.0" d="m354.0 412.0l252.0 -116.0" fill-rule="evenodd"/><path stroke="#000000" stroke-width="3.0" stroke-linejoin="round" stroke-linecap="butt" d="m354.0 412.0l252.0 -116.0" fill-rule="evenodd"/><path fill="#0000ff" d="m388.0 326.0l0 0c0 -4.418274 3.581726 -8.0 8.0 -8.0l0 0c2.1217346 0 4.156555 0.842865 5.6568604 2.3431396c1.5002747 1.5003052 2.3431396 3.5351257 2.3431396 5.6568604l0 0c0 4.418274 -3.581726 8.0 -8.0 8.0l0 0c-4.418274 0 -8.0 -3.581726 -8.0 -8.0z" fill-rule="evenodd"/><path stroke="#0000ff" stroke-width="1.0" stroke-linejoin="round" stroke-linecap="butt" d="m388.0 326.0l0 0c0 -4.418274 3.581726 -8.0 8.0 -8.0l0 0c2.1217346 0 4.156555 0.842865 5.6568604 2.3431396c1.5002747 1.5003052 2.3431396 3.5351257 2.3431396 5.6568604l0 0c0 4.418274 -3.581726 8.0 -8.0 8.0l0 0c-4.418274 0 -8.0 -3.581726 -8.0 -8.0z" fill-rule="evenodd"/><path fill="#0000ff" d="m425.0 345.0l0 0c0 -4.418274 3.581726 -8.0 8.0 -8.0l0 0c2.1217346 0 4.156555 0.842865 5.6568604 2.3431396c1.5002747 1.5003052 2.3431396 3.5351257 2.3431396 5.6568604l0 0c0 4.418274 -3.581726 8.0 -8.0 8.0l0 0c-4.418274 0 -8.0 -3.581726 -8.0 -8.0z" fill-rule="evenodd"/><path stroke="#0000ff" stroke-width="1.0" stroke-linejoin="round" stroke-linecap="butt" d="m425.0 345.0l0 0c0 -4.418274 3.581726 -8.0 8.0 -8.0l0 0c2.1217346 0 4.156555 0.842865 5.6568604 2.3431396c1.5002747 1.5003052 2.3431396 3.5351257 2.3431396 5.6568604l0 0c0 4.418274 -3.581726 8.0 -8.0 8.0l0 0c-4.418274 0 -8.0 -3.581726 -8.0 -8.0z" fill-rule="evenodd"/><path fill="#0000ff" d="m428.0 302.0l0 0c0 -4.418274 3.581726 -8.0 8.0 -8.0l0 0c2.1217346 0 4.156555 0.842865 5.6568604 2.3431396c1.5002747 1.5003052 2.3431396 3.5351257 2.3431396 5.6568604l0 0c0 4.418274 -3.581726 8.0 -8.0 8.0l0 0c-4.418274 0 -8.0 -3.581726 -8.0 -8.0z" fill-rule="evenodd"/><path stroke="#0000ff" stroke-width="1.0" stroke-linejoin="round" stroke-linecap="butt" d="m428.0 302.0l0 0c0 -4.418274 3.581726 -8.0 8.0 -8.0l0 0c2.1217346 0 4.156555 0.842865 5.6568604 2.3431396c1.5002747 1.5003052 2.3431396 3.5351257 2.3431396 5.6568604l0 0c0 4.418274 -3.581726 8.0 -8.0 8.0l0 0c-4.418274 0 -8.0 -3.581726 -8.0 -8.0z" fill-rule="evenodd"/><path fill="#0000ff" d="m460.0 326.0l0 0c0 -4.418274 3.581726 -8.0 8.0 -8.0l0 0c2.1217346 0 4.156555 0.842865 5.6568604 2.3431396c1.5002747 1.5003052 2.3431396 3.5351257 2.3431396 5.6568604l0 0c0 4.418274 -3.581726 8.0 -8.0 8.0l0 0c-4.418274 0 -8.0 -3.581726 -8.0 -8.0z" fill-rule="evenodd"/><path stroke="#0000ff" stroke-width="1.0" stroke-linejoin="round" stroke-linecap="butt" d="m460.0 326.0l0 0c0 -4.418274 3.581726 -8.0 8.0 -8.0l0 0c2.1217346 0 4.156555 0.842865 5.6568604 2.3431396c1.5002747 1.5003052 2.3431396 3.5351257 2.3431396 5.6568604l0 0c0 4.418274 -3.581726 8.0 -8.0 8.0l0 0c-4.418274 0 -8.0 -3.581726 -8.0 -8.0z" fill-rule="evenodd"/><path fill="#0000ff" d="m380.0 366.0l0 0c0 -4.418274 3.581726 -8.0 8.0 -8.0l0 0c2.1217346 0 4.156555 0.842865 5.6568604 2.3431396c1.5002747 1.5003052 2.3431396 3.5351257 2.3431396 5.6568604l0 0c0 4.418274 -3.581726 8.0 -8.0 8.0l0 0c-4.418274 0 -8.0 -3.581726 -8.0 -8.0z" fill-rule="evenodd"/><path stroke="#0000ff" stroke-width="1.0" stroke-linejoin="round" stroke-linecap="butt" d="m380.0 366.0l0 0c0 -4.418274 3.581726 -8.0 8.0 -8.0l0 0c2.1217346 0 4.156555 0.842865 5.6568604 2.3431396c1.5002747 1.5003052 2.3431396 3.5351257 2.3431396 5.6568604l0 0c0 4.418274 -3.581726 8.0 -8.0 8.0l0 0c-4.418274 0 -8.0 -3.581726 -8.0 -8.0z" fill-rule="evenodd"/><path fill="#ff0000" d="m404.0 406.0l0 0c0 -4.418274 3.581726 -8.0 8.0 -8.0l0 0c2.1217346 0 4.156555 0.842865 5.6568604 2.3431396c1.5002747 1.5003052 2.3431396 3.5351257 2.3431396 5.6568604l0 0c0 4.418274 -3.581726 8.0 -8.0 8.0l0 0c-4.418274 0 -8.0 -3.581726 -8.0 -8.0z" fill-rule="evenodd"/><path stroke="#ff0000" stroke-width="1.0" stroke-linejoin="round" stroke-linecap="butt" d="m404.0 406.0l0 0c0 -4.418274 3.581726 -8.0 8.0 -8.0l0 0c2.1217346 0 4.156555 0.842865 5.6568604 2.3431396c1.5002747 1.5003052 2.3431396 3.5351257 2.3431396 5.6568604l0 0c0 4.418274 -3.581726 8.0 -8.0 8.0l0 0c-4.418274 0 -8.0 -3.581726 -8.0 -8.0z" fill-rule="evenodd"/><path fill="#ff0000" d="m444.0 390.0l0 0c0 -4.418274 3.581726 -8.0 8.0 -8.0l0 0c2.1217346 0 4.156555 0.842865 5.6568604 2.3431396c1.5002747 1.5003052 2.3431396 3.5351257 2.3431396 5.6568604l0 0c0 4.418274 -3.581726 8.0 -8.0 8.0l0 0c-4.418274 0 -8.0 -3.581726 -8.0 -8.0z" fill-rule="evenodd"/><path stroke="#ff0000" stroke-width="1.0" stroke-linejoin="round" stroke-linecap="butt" d="m444.0 390.0l0 0c0 -4.418274 3.581726 -8.0 8.0 -8.0l0 0c2.1217346 0 4.156555 0.842865 5.6568604 2.3431396c1.5002747 1.5003052 2.3431396 3.5351257 2.3431396 5.6568604l0 0c0 4.418274 -3.581726 8.0 -8.0 8.0l0 0c-4.418274 0 -8.0 -3.581726 -8.0 -8.0z" fill-rule="evenodd"/><path fill="#ff0000" d="m500.0 406.0l0 0c0 -4.418274 3.581726 -8.0 8.0 -8.0l0 0c2.1217346 0 4.156555 0.842865 5.6568604 2.3431396c1.5003052 1.5003052 2.3431396 3.5351257 2.3431396 5.6568604l0 0c0 4.418274 -3.581726 8.0 -8.0 8.0l0 0c-4.418274 0 -8.0 -3.581726 -8.0 -8.0z" fill-rule="evenodd"/><path stroke="#ff0000" stroke-width="1.0" stroke-linejoin="round" stroke-linecap="butt" d="m500.0 406.0l0 0c0 -4.418274 3.581726 -8.0 8.0 -8.0l0 0c2.1217346 0 4.156555 0.842865 5.6568604 2.3431396c1.5003052 1.5003052 2.3431396 3.5351257 2.3431396 5.6568604l0 0c0 4.418274 -3.581726 8.0 -8.0 8.0l0 0c-4.418274 0 -8.0 -3.581726 -8.0 -8.0z" fill-rule="evenodd"/><path fill="#ff0000" d="m492.0 374.0l0 0c0 -4.418274 3.581726 -8.0 8.0 -8.0l0 0c2.1217346 0 4.156555 0.842865 5.6568604 2.3431396c1.5002747 1.5003052 2.3431396 3.5351257 2.3431396 5.6568604l0 0c0 4.418274 -3.581726 8.0 -8.0 8.0l0 0c-4.418274 0 -8.0 -3.581726 -8.0 -8.0z" fill-rule="evenodd"/><path stroke="#ff0000" stroke-width="1.0" stroke-linejoin="round" stroke-linecap="butt" d="m492.0 374.0l0 0c0 -4.418274 3.581726 -8.0 8.0 -8.0l0 0c2.1217346 0 4.156555 0.842865 5.6568604 2.3431396c1.5002747 1.5003052 2.3431396 3.5351257 2.3431396 5.6568604l0 0c0 4.418274 -3.581726 8.0 -8.0 8.0l0 0c-4.418274 0 -8.0 -3.581726 -8.0 -8.0z" fill-rule="evenodd"/><path fill="#ff0000" d="m532.0 382.0l0 0c0 -4.418274 3.581726 -8.0 8.0 -8.0l0 0c2.121704 0 4.156555 0.842865 5.6568604 2.3431396c1.5003052 1.5003052 2.3431396 3.5351257 2.3431396 5.6568604l0 0c0 4.418274 -3.581726 8.0 -8.0 8.0l0 0c-4.418274 0 -8.0 -3.581726 -8.0 -8.0z" fill-rule="evenodd"/><path stroke="#ff0000" stroke-width="1.0" stroke-linejoin="round" stroke-linecap="butt" d="m532.0 382.0l0 0c0 -4.418274 3.581726 -8.0 8.0 -8.0l0 0c2.121704 0 4.156555 0.842865 5.6568604 2.3431396c1.5003052 1.5003052 2.3431396 3.5351257 2.3431396 5.6568604l0 0c0 4.418274 -3.581726 8.0 -8.0 8.0l0 0c-4.418274 0 -8.0 -3.581726 -8.0 -8.0z" fill-rule="evenodd"/><path fill="#ff0000" d="m548.0 342.0l0 0c0 -4.418274 3.581726 -8.0 8.0 -8.0l0 0c2.121704 0 4.156555 0.842865 5.6568604 2.3431396c1.5003052 1.5003052 2.3431396 3.5351257 2.3431396 5.6568604l0 0c0 4.418274 -3.581726 8.0 -8.0 8.0l0 0c-4.418274 0 -8.0 -3.581726 -8.0 -8.0z" fill-rule="evenodd"/><path stroke="#ff0000" stroke-width="1.0" stroke-linejoin="round" stroke-linecap="butt" d="m548.0 342.0l0 0c0 -4.418274 3.581726 -8.0 8.0 -8.0l0 0c2.121704 0 4.156555 0.842865 5.6568604 2.3431396c1.5003052 1.5003052 2.3431396 3.5351257 2.3431396 5.6568604l0 0c0 4.418274 -3.581726 8.0 -8.0 8.0l0 0c-4.418274 0 -8.0 -3.581726 -8.0 -8.0z" fill-rule="evenodd"/><path fill="#0000ff" d="m468.0 406.0l0 0c0 -4.418274 3.581726 -8.0 8.0 -8.0l0 0c2.1217346 0 4.156555 0.842865 5.6568604 2.3431396c1.5002747 1.5003052 2.3431396 3.5351257 2.3431396 5.6568604l0 0c0 4.418274 -3.581726 8.0 -8.0 8.0l0 0c-4.418274 0 -8.0 -3.581726 -8.0 -8.0z" fill-rule="evenodd"/><path stroke="#0000ff" stroke-width="1.0" stroke-linejoin="round" stroke-linecap="butt" d="m468.0 406.0l0 0c0 -4.418274 3.581726 -8.0 8.0 -8.0l0 0c2.1217346 0 4.156555 0.842865 5.6568604 2.3431396c1.5002747 1.5003052 2.3431396 3.5351257 2.3431396 5.6568604l0 0c0 4.418274 -3.581726 8.0 -8.0 8.0l0 0c-4.418274 0 -8.0 -3.581726 -8.0 -8.0z" fill-rule="evenodd"/><path fill="#ff0000" d="m492.0 302.0l0 0c0 -4.418274 3.581726 -8.0 8.0 -8.0l0 0c2.1217346 0 4.156555 0.842865 5.6568604 2.3431396c1.5002747 1.5003052 2.3431396 3.5351257 2.3431396 5.6568604l0 0c0 4.418274 -3.581726 8.0 -8.0 8.0l0 0c-4.418274 0 -8.0 -3.581726 -8.0 -8.0z" fill-rule="evenodd"/><path stroke="#ff0000" stroke-width="1.0" stroke-linejoin="round" stroke-linecap="butt" d="m492.0 302.0l0 0c0 -4.418274 3.581726 -8.0 8.0 -8.0l0 0c2.1217346 0 4.156555 0.842865 5.6568604 2.3431396c1.5002747 1.5003052 2.3431396 3.5351257 2.3431396 5.6568604l0 0c0 4.418274 -3.581726 8.0 -8.0 8.0l0 0c-4.418274 0 -8.0 -3.581726 -8.0 -8.0z" fill-rule="evenodd"/><path fill="#ff0000" d="m508.0 334.0l0 0c0 -4.418274 3.581726 -8.0 8.0 -8.0l0 0c2.121704 0 4.156555 0.842865 5.6568604 2.3431396c1.5003052 1.5003052 2.3431396 3.5351257 2.3431396 5.6568604l0 0c0 4.418274 -3.581726 8.0 -8.0 8.0l0 0c-4.418274 0 -8.0 -3.581726 -8.0 -8.0z" fill-rule="evenodd"/><path stroke="#ff0000" stroke-width="1.0" stroke-linejoin="round" stroke-linecap="butt" d="m508.0 334.0l0 0c0 -4.418274 3.581726 -8.0 8.0 -8.0l0 0c2.121704 0 4.156555 0.842865 5.6568604 2.3431396c1.5003052 1.5003052 2.3431396 3.5351257 2.3431396 5.6568604l0 0c0 4.418274 -3.581726 8.0 -8.0 8.0l0 0c-4.418274 0 -8.0 -3.581726 -8.0 -8.0z" fill-rule="evenodd"/><path fill="#0000ff" d="m532.0 302.0l0 0c0 -4.418274 3.581726 -8.0 8.0 -8.0l0 0c2.121704 0 4.156555 0.842865 5.6568604 2.3431396c1.5003052 1.5003052 2.3431396 3.5351257 2.3431396 5.6568604l0 0c0 4.418274 -3.581726 8.0 -8.0 8.0l0 0c-4.418274 0 -8.0 -3.581726 -8.0 -8.0z" fill-rule="evenodd"/><path stroke="#0000ff" stroke-width="1.0" stroke-linejoin="round" stroke-linecap="butt" d="m532.0 302.0l0 0c0 -4.418274 3.581726 -8.0 8.0 -8.0l0 0c2.121704 0 4.156555 0.842865 5.6568604 2.3431396c1.5003052 1.5003052 2.3431396 3.5351257 2.3431396 5.6568604l0 0c0 4.418274 -3.581726 8.0 -8.0 8.0l0 0c-4.418274 0 -8.0 -3.581726 -8.0 -8.0z" fill-rule="evenodd"/><path fill="#000000" fill-opacity="0.0" d="m455.49606 430.0l49.007874 0l0 44.0l-49.007874 0z" fill-rule="evenodd"/><path fill="#ffffff" d="m479.8513 445.35748l-4.6875 6.703125l4.671875 6.859375l-2.078125 0l-3.703125 -5.578125l-3.78125 5.578125l-1.96875 0l4.71875 -6.78125l-4.609375 -6.78125l2.078125 0l3.640625 5.515625l3.734375 -5.515625l1.984375 0zm10.483734 13.5625l-7.34375 0l0 -1.390625l2.828125 0l0 -9.078125l-2.828125 0l0 -1.25q0.578125 0 1.234375 -0.09375q0.65625 -0.09375 0.984375 -0.28125q0.421875 -0.21875 0.65625 -0.5625q0.25 -0.359375 0.28125 -0.953125l1.421875 0l0 12.21875l2.765625 0l0 1.390625z" fill-rule="nonzero"/><path fill="#000000" fill-opacity="0.0" d="m318.49606 332.4882l49.007874 0l0 44.0l-49.007874 0z" fill-rule="evenodd"/><path fill="#ffffff" d="m342.8513 347.84567l-4.6875 6.703125l4.671875 6.859375l-2.078125 0l-3.703125 -5.578125l-3.78125 5.578125l-1.96875 0l4.71875 -6.78125l-4.609375 -6.78125l2.078125 0l3.640625 5.515625l3.734375 -5.515625l1.984375 0zm11.264984 13.5625l-9.1875 0l0 -1.90625q0.953125 -0.8125 1.90625 -1.625q0.96875 -0.828125 1.796875 -1.640625q1.75 -1.703125 2.390625 -2.6875q0.65625 -1.0 0.65625 -2.15625q0 -1.0625 -0.703125 -1.65625q-0.6875 -0.59375 -1.9375 -0.59375q-0.828125 0 -1.796875 0.296875q-0.96875 0.28125 -1.890625 0.875l-0.09375 0l0 -1.90625q0.65625 -0.3125 1.734375 -0.578125q1.078125 -0.265625 2.09375 -0.265625q2.078125 0 3.265625 1.015625q1.1875 1.0 1.1875 2.71875q0 0.765625 -0.203125 1.4375q-0.1875 0.671875 -0.578125 1.28125q-0.34375 0.5625 -0.828125 1.109375q-0.484375 0.546875 -1.15625 1.203125q-0.984375 0.953125 -2.03125 1.859375q-1.03125 0.890625 -1.921875 1.65625l7.296875 0l0 1.5625z" fill-rule="nonzero"/></g></svg>